<svg xmlns="http://www.w3.org/2000/svg" xmlns:xlink="http://www.w3.org/1999/xlink" width="500" zoomAndPan="magnify" viewBox="0 0 375 374.999991" height="500" preserveAspectRatio="xMidYMid meet" version="1.0"><defs><g/><clipPath id="e408c1020e"><path d="M 45 61 L 321.355469 61 L 321.355469 371.972656 L 45 371.972656 Z M 45 61 " clip-rule="nonzero"/></clipPath><clipPath id="55d6fb659c"><path d="M 106 0.121094 L 240 0.121094 L 240 125 L 106 125 Z M 106 0.121094 " clip-rule="nonzero"/></clipPath><clipPath id="004041142e"><path d="M 0.625 75 L 81 75 L 81 371 L 0.625 371 Z M 0.625 75 " clip-rule="nonzero"/></clipPath><clipPath id="22b448097c"><rect x="0" width="323" y="0" height="372"/></clipPath></defs><g transform="matrix(1, 0, 0, 1, 10, 3)"><g clip-path="url(#22b448097c)"><g clip-path="url(#e408c1020e)"><path fill="#000000" d="M 321.078125 290.320312 C 302.914062 297.988281 284.664062 305.378906 266.390625 312.714844 L 238.945312 323.589844 C 234.363281 325.382812 229.832031 327.324219 225.128906 328.742188 C 220.4375 330.191406 215.722656 331.578125 211.066406 333.136719 L 98.976562 369.542969 L 91.425781 371.996094 L 90.234375 364.144531 L 47.085938 78.707031 L 45.992188 71.472656 L 53.292969 70.980469 L 169.695312 63.113281 L 184.246094 62.105469 C 189.089844 61.683594 193.925781 61.171875 198.808594 61.300781 L 228.042969 61.328125 C 247.535156 61.375 267.039062 61.589844 286.554688 61.96875 C 267.269531 64.96875 247.972656 67.808594 228.664062 70.476562 L 199.695312 74.4375 C 194.875 75.21875 190.011719 75.363281 185.15625 75.597656 L 170.605469 76.554688 L 54.199219 84.417969 L 60.40625 76.691406 L 103.558594 362.132812 L 94.816406 356.730469 L 206.90625 320.320312 C 211.589844 318.847656 216.214844 317.195312 220.863281 315.613281 C 225.5 313.992188 230.3125 312.90625 235.070312 311.660156 L 263.671875 304.332031 C 282.761719 299.53125 301.875 294.785156 321.078125 290.320312 " fill-opacity="1" fill-rule="nonzero"/></g><g clip-path="url(#55d6fb659c)"><path fill="#000000" d="M 115.539062 124.128906 L 107.261719 69.375 C 104.777344 52.925781 108.890625 36.730469 118.84375 23.765625 C 128.808594 10.785156 143.417969 2.621094 159.976562 0.773438 C 193.886719 -3.007812 225.636719 21.351562 230.738281 55.074219 L 239.015625 109.828125 L 225.695312 111.84375 L 217.417969 57.085938 C 213.386719 30.429688 188.320312 11.160156 161.46875 14.160156 C 148.585938 15.597656 137.246094 21.921875 129.53125 31.96875 C 121.828125 42 118.648438 54.570312 120.582031 67.359375 L 128.859375 122.113281 L 115.539062 124.128906 " fill-opacity="1" fill-rule="nonzero"/></g><path fill="#000000" d="M 214.957031 112.777344 C 216.402344 122.328125 225.363281 129.203125 234.96875 128.132812 C 244.578125 127.058594 251.195312 118.445312 249.753906 108.894531 C 248.308594 99.34375 239.347656 92.46875 229.742188 93.539062 C 220.132812 94.609375 213.511719 103.222656 214.957031 112.777344 " fill-opacity="1" fill-rule="nonzero"/><path fill="#000000" d="M 104.800781 125.0625 C 106.246094 134.613281 115.207031 141.488281 124.8125 140.417969 C 134.421875 139.34375 141.042969 130.734375 139.597656 121.179688 C 138.152344 111.628906 129.191406 104.753906 119.585938 105.828125 C 109.976562 106.898438 103.359375 115.507812 104.800781 125.0625 " fill-opacity="1" fill-rule="nonzero"/><g clip-path="url(#004041142e)"><path fill="#000000" d="M 34.746094 75.742188 C 35.34375 81.601562 35.8125 87.453125 36.195312 93.296875 C 36.644531 99.144531 36.902344 104.976562 37.203125 110.808594 C 37.304688 113.722656 37.605469 116.65625 37.546875 119.554688 C 37.488281 121 37.191406 122.421875 37.015625 123.859375 C 36.820312 125.289062 36.703125 126.730469 36.566406 128.167969 L 34.9375 145.433594 L 28.417969 214.496094 L 15.386719 352.617188 L 5.339844 346.136719 C 6.460938 345.511719 7.210938 345.160156 8.125 344.730469 C 9.003906 344.320312 9.875 343.941406 10.753906 343.582031 C 12.507812 342.855469 14.28125 342.21875 16.074219 341.648438 C 19.671875 340.539062 23.324219 339.589844 27.074219 338.914062 C 30.851562 338.382812 34.730469 338.714844 38.507812 339.15625 C 42.296875 339.660156 46.023438 340.535156 49.59375 341.769531 C 56.757812 344.234375 63.136719 348.378906 68.285156 353.386719 C 73.460938 358.402344 77.476562 364.253906 80.585938 370.390625 C 75.945312 365.296875 70.71875 360.886719 65.109375 357.515625 C 59.46875 354.167969 53.351562 352.113281 47.246094 351.324219 C 44.183594 350.953125 41.113281 350.902344 38.082031 351.152344 C 35.039062 351.339844 32.074219 352.089844 29.097656 352.558594 C 26.09375 352.886719 23.082031 353.519531 20.175781 354.480469 C 18.71875 354.945312 17.273438 355.460938 15.875 356.042969 C 15.171875 356.328125 14.480469 356.632812 13.808594 356.945312 C 13.179688 357.230469 12.390625 357.628906 12.019531 357.832031 L 0.777344 364.03125 L 1.972656 351.351562 L 15.007812 213.230469 L 21.523438 144.167969 L 23.152344 126.90625 C 23.285156 125.464844 23.4375 124.027344 23.515625 122.582031 C 23.613281 121.140625 23.585938 119.6875 23.800781 118.257812 C 24.28125 115.398438 25.128906 112.574219 25.773438 109.730469 C 27.160156 104.058594 28.503906 98.378906 30.039062 92.714844 C 31.507812 87.046875 33.066406 81.390625 34.746094 75.742188 " fill-opacity="1" fill-rule="nonzero"/></g><g fill="#000000" fill-opacity="1"><g transform="translate(118.698162, 284.77776)"><g><path d="M 86.375 -56.609375 C 86.957031 -56.878906 87.316406 -57.351562 87.453125 -58.03125 C 87.585938 -58.707031 87.703125 -59.285156 87.796875 -59.765625 C 89.796875 -68.078125 92.085938 -76.429688 94.671875 -84.828125 C 97.265625 -93.222656 100.570312 -101.109375 104.59375 -108.484375 C 106.6875 -112.304688 109.078125 -116.144531 111.765625 -120 C 114.460938 -123.851562 117.492188 -127.476562 120.859375 -130.875 C 122.410156 -132.382812 124.203125 -133.957031 126.234375 -135.59375 C 128.273438 -137.238281 130.5 -138.734375 132.90625 -140.078125 C 134.59375 -140.984375 136.359375 -141.742188 138.203125 -142.359375 C 139.398438 -142.765625 140.609375 -143.066406 141.828125 -143.265625 C 143.054688 -143.472656 144.171875 -143.476562 145.171875 -143.28125 C 145.222656 -143.300781 145.609375 -143.234375 146.328125 -143.078125 C 147.046875 -142.929688 147.472656 -142.644531 147.609375 -142.21875 C 147.734375 -141.863281 147.769531 -141.578125 147.71875 -141.359375 C 147.5 -141.148438 147.210938 -140.984375 146.859375 -140.859375 C 146.265625 -140.660156 145.640625 -140.6875 144.984375 -140.9375 C 144.335938 -141.195312 143.675781 -141.273438 143 -141.171875 C 142.15625 -141.085938 141.257812 -140.882812 140.3125 -140.5625 C 138.820312 -140.0625 137.351562 -139.335938 135.90625 -138.390625 C 134.46875 -137.441406 133.222656 -136.460938 132.171875 -135.453125 C 129.785156 -133.066406 127.710938 -130.644531 125.953125 -128.1875 C 125.484375 -127.570312 125.066406 -126.867188 124.703125 -126.078125 C 124.347656 -125.296875 123.957031 -124.539062 123.53125 -123.8125 C 122.695312 -122.332031 121.941406 -120.863281 121.265625 -119.40625 C 120.585938 -117.957031 119.863281 -116.4375 119.09375 -114.84375 C 118.6875 -114.039062 118.253906 -113.28125 117.796875 -112.5625 C 117.335938 -111.851562 117.007812 -111.203125 116.8125 -110.609375 C 116.601562 -109.867188 116.410156 -109.054688 116.234375 -108.171875 C 116.066406 -107.285156 115.882812 -106.441406 115.6875 -105.640625 L 115.140625 -103.765625 C 114.609375 -101.796875 114.046875 -99.765625 113.453125 -97.671875 C 112.859375 -95.585938 112.34375 -93.507812 111.90625 -91.4375 C 111.550781 -89.738281 111.191406 -88.097656 110.828125 -86.515625 C 110.460938 -84.929688 110.207031 -83.253906 110.0625 -81.484375 C 109.96875 -79.785156 109.769531 -78.101562 109.46875 -76.4375 C 109.164062 -74.78125 108.972656 -73.078125 108.890625 -71.328125 C 108.859375 -70.859375 108.816406 -70.347656 108.765625 -69.796875 C 108.710938 -69.253906 108.679688 -68.710938 108.671875 -68.171875 C 108.285156 -61.804688 108.144531 -55.195312 108.25 -48.34375 C 108.351562 -41.488281 109.507812 -34.28125 111.71875 -26.71875 L 111.984375 -25.921875 C 112.253906 -25.140625 112.535156 -24.398438 112.828125 -23.703125 C 113.128906 -23.003906 113.445312 -22.253906 113.78125 -21.453125 C 116.71875 -14.460938 121.140625 -9.617188 127.046875 -6.921875 C 132.960938 -4.234375 139.796875 -4.191406 147.546875 -6.796875 C 148.023438 -6.953125 148.515625 -7.113281 149.015625 -7.28125 C 149.523438 -7.457031 150.039062 -7.664062 150.5625 -7.90625 C 157.257812 -10.675781 162.65625 -14.304688 166.75 -18.796875 C 170.851562 -23.296875 173.863281 -28.222656 175.78125 -33.578125 C 176.039062 -34.191406 176.347656 -34.804688 176.703125 -35.421875 C 177.054688 -36.035156 177.503906 -36.4375 178.046875 -36.625 C 178.453125 -36.757812 178.847656 -36.757812 179.234375 -36.625 C 180.023438 -36.425781 180.539062 -35.972656 180.78125 -35.265625 C 181.0625 -34.421875 181 -33.46875 180.59375 -32.40625 C 180.195312 -31.34375 179.832031 -30.492188 179.5 -29.859375 C 178.875 -28.585938 178.140625 -27.425781 177.296875 -26.375 C 176.453125 -25.332031 175.632812 -24.3125 174.84375 -23.3125 C 174.0625 -22.457031 173.304688 -21.476562 172.578125 -20.375 C 171.859375 -19.269531 171.015625 -18.285156 170.046875 -17.421875 C 169.535156 -16.984375 169.019531 -16.546875 168.5 -16.109375 C 167.988281 -15.671875 167.441406 -15.226562 166.859375 -14.78125 C 166.347656 -14.34375 165.859375 -13.875 165.390625 -13.375 C 164.921875 -12.882812 164.414062 -12.453125 163.875 -12.078125 C 162.539062 -11.160156 161.082031 -10.335938 159.5 -9.609375 C 157.914062 -8.878906 156.328125 -8.007812 154.734375 -7 C 153.429688 -6.175781 152.085938 -5.445312 150.703125 -4.8125 C 149.328125 -4.1875 147.894531 -3.625 146.40625 -3.125 C 142.707031 -1.894531 138.960938 -1.175781 135.171875 -0.96875 C 131.390625 -0.757812 128.019531 -1.019531 125.0625 -1.75 C 121.03125 -2.71875 117.316406 -4.753906 113.921875 -7.859375 C 110.523438 -10.960938 107.75 -15.035156 105.59375 -20.078125 C 105.3125 -20.722656 105.046875 -21.367188 104.796875 -22.015625 C 104.546875 -22.660156 104.3125 -23.304688 104.09375 -23.953125 C 103.71875 -25.085938 103.375 -26.265625 103.0625 -27.484375 C 102.75 -28.710938 102.457031 -29.914062 102.1875 -31.09375 C 100.59375 -39.238281 99.910156 -46.914062 100.140625 -54.125 C 100.367188 -61.34375 100.976562 -68.425781 101.96875 -75.375 C 102.113281 -76.351562 102.3125 -77.300781 102.5625 -78.21875 C 102.8125 -79.132812 103.007812 -80.078125 103.15625 -81.046875 C 103.226562 -81.609375 103.226562 -82.140625 103.15625 -82.640625 C 103.09375 -83.148438 103.109375 -83.648438 103.203125 -84.140625 C 103.359375 -85.648438 103.644531 -87.15625 104.0625 -88.65625 C 104.488281 -90.164062 104.894531 -91.644531 105.28125 -93.09375 C 106.1875 -96.71875 107.257812 -100.28125 108.5 -103.78125 C 109.75 -107.289062 111.257812 -110.664062 113.03125 -113.90625 C 113.34375 -114.550781 113.707031 -115.175781 114.125 -115.78125 C 114.550781 -116.382812 114.664062 -117.085938 114.46875 -117.890625 C 114.257812 -117.941406 114.007812 -117.921875 113.71875 -117.828125 C 113.238281 -117.660156 112.828125 -117.335938 112.484375 -116.859375 C 112.148438 -116.378906 111.878906 -115.941406 111.671875 -115.546875 C 108.265625 -110.492188 105.363281 -105.109375 102.96875 -99.390625 C 100.570312 -93.679688 98.503906 -87.832031 96.765625 -81.84375 C 95.035156 -75.851562 93.394531 -69.8125 91.84375 -63.71875 C 90.695312 -59.039062 89.582031 -54.210938 88.5 -49.234375 C 87.414062 -44.253906 86.488281 -39.148438 85.71875 -33.921875 C 85.40625 -31.492188 84.914062 -29.054688 84.25 -26.609375 C 83.582031 -24.160156 83.0625 -21.617188 82.6875 -18.984375 C 82.550781 -17.796875 82.328125 -16.617188 82.015625 -15.453125 C 81.710938 -14.296875 81.328125 -13.039062 80.859375 -11.6875 C 80.816406 -11.539062 80.722656 -11.3125 80.578125 -11 L 80.4375 -10.5625 C 80.113281 -9.71875 79.722656 -8.835938 79.265625 -7.921875 C 78.816406 -7.003906 78.234375 -6.429688 77.515625 -6.203125 C 77.328125 -6.128906 77.035156 -6.097656 76.640625 -6.109375 C 75.703125 -6.179688 75.101562 -6.601562 74.84375 -7.375 C 74.65625 -7.914062 74.609375 -8.53125 74.703125 -9.21875 C 74.796875 -9.914062 74.910156 -10.457031 75.046875 -10.84375 C 75.921875 -13.382812 76.804688 -15.898438 77.703125 -18.390625 C 78.597656 -20.878906 79.359375 -23.457031 79.984375 -26.125 C 81.804688 -33.363281 82.863281 -40.796875 83.15625 -48.421875 C 83.457031 -56.054688 83.257812 -64.066406 82.5625 -72.453125 C 82.394531 -74.722656 82.132812 -77.269531 81.78125 -80.09375 C 81.425781 -82.925781 80.757812 -85.804688 79.78125 -88.734375 C 79.601562 -89.265625 79.40625 -89.804688 79.1875 -90.359375 C 78.96875 -90.921875 78.738281 -91.457031 78.5 -91.96875 C 78.039062 -93.144531 77.507812 -94.28125 76.90625 -95.375 C 76.300781 -96.476562 75.679688 -96.988281 75.046875 -96.90625 C 74.992188 -96.882812 74.929688 -96.878906 74.859375 -96.890625 C 74.785156 -96.898438 74.691406 -96.882812 74.578125 -96.84375 C 73.734375 -96.5625 73.207031 -95.9375 73 -94.96875 C 72.800781 -94.007812 72.734375 -92.988281 72.796875 -91.90625 C 72.859375 -90.832031 72.878906 -90.023438 72.859375 -89.484375 C 72.773438 -82.429688 72.429688 -75.554688 71.828125 -68.859375 C 71.222656 -62.160156 70.425781 -55.625 69.4375 -49.25 C 69.164062 -47.300781 68.8125 -45.390625 68.375 -43.515625 C 67.945312 -41.648438 67.515625 -39.78125 67.078125 -37.90625 C 66.898438 -37.25 66.695312 -36.617188 66.46875 -36.015625 C 66.238281 -35.410156 66.054688 -34.820312 65.921875 -34.25 C 65.835938 -33.6875 65.789062 -33.070312 65.78125 -32.40625 C 65.78125 -31.738281 65.738281 -31.125 65.65625 -30.5625 C 65.082031 -28.125 64.316406 -25.613281 63.359375 -23.03125 C 62.398438 -20.445312 61.375 -17.914062 60.28125 -15.4375 C 58.84375 -12.238281 57.273438 -9.109375 55.578125 -6.046875 C 53.878906 -2.992188 51.820312 -0.117188 49.40625 2.578125 C 47 5.273438 43.976562 7.734375 40.34375 9.953125 C 39.238281 10.585938 38.101562 11.195312 36.9375 11.78125 C 35.78125 12.375 34.601562 12.867188 33.40625 13.265625 C 30.65625 14.191406 27.988281 14.507812 25.40625 14.21875 C 22.820312 13.925781 20.691406 12.664062 19.015625 10.4375 C 18.992188 10.375 18.960938 10.332031 18.921875 10.3125 C 18.878906 10.289062 18.851562 10.25 18.84375 10.1875 C 18.6875 9.914062 18.503906 9.613281 18.296875 9.28125 C 18.085938 8.957031 17.921875 8.613281 17.796875 8.25 C 17.660156 7.832031 17.625 7.429688 17.6875 7.046875 C 17.757812 6.671875 18.050781 6.359375 18.5625 6.109375 C 19.226562 5.890625 19.789062 6.03125 20.25 6.53125 C 20.71875 7.039062 21.113281 7.632812 21.4375 8.3125 C 21.769531 9 22.097656 9.523438 22.421875 9.890625 C 23.535156 11.035156 24.859375 11.679688 26.390625 11.828125 C 27.929688 11.984375 29.539062 11.78125 31.21875 11.21875 C 33.664062 10.40625 36.035156 9.113281 38.328125 7.34375 C 40.617188 5.582031 42.410156 3.953125 43.703125 2.453125 C 45.328125 0.585938 46.679688 -1.285156 47.765625 -3.171875 C 48.859375 -5.066406 49.914062 -7.082031 50.9375 -9.21875 C 51.21875 -9.90625 51.5625 -10.582031 51.96875 -11.25 C 52.382812 -11.925781 52.71875 -12.566406 52.96875 -13.171875 C 53.59375 -14.710938 54.140625 -16.40625 54.609375 -18.25 C 55.085938 -20.101562 55.578125 -21.878906 56.078125 -23.578125 C 57.910156 -30.554688 59.414062 -37.675781 60.59375 -44.9375 C 61.769531 -52.195312 62.851562 -59.539062 63.84375 -66.96875 C 64.84375 -74.40625 65.976562 -81.753906 67.25 -89.015625 C 67.570312 -90.847656 67.976562 -92.707031 68.46875 -94.59375 C 68.957031 -96.476562 69.191406 -98.25 69.171875 -99.90625 C 69.171875 -101.09375 69.019531 -102.132812 68.71875 -103.03125 C 68.132812 -104.757812 67.179688 -106.015625 65.859375 -106.796875 C 64.535156 -107.578125 63.113281 -108.242188 61.59375 -108.796875 C 59.175781 -109.710938 56.265625 -110.144531 52.859375 -110.09375 C 49.453125 -110.050781 45.992188 -109.441406 42.484375 -108.265625 C 41.710938 -108.003906 40.929688 -107.707031 40.140625 -107.375 C 39.359375 -107.050781 38.570312 -106.6875 37.78125 -106.28125 C 36.25 -105.5 34.75 -104.566406 33.28125 -103.484375 C 31.820312 -102.398438 30.363281 -101.378906 28.90625 -100.421875 C 27.46875 -99.546875 26.109375 -98.546875 24.828125 -97.421875 C 23.546875 -96.296875 22.394531 -95.191406 21.375 -94.109375 C 15.332031 -87.785156 10.554688 -80.851562 7.046875 -73.3125 C 3.546875 -65.769531 0.75 -57.800781 -1.34375 -49.40625 C -1.5625 -48.65625 -1.773438 -47.910156 -1.984375 -47.171875 C -2.203125 -46.429688 -2.363281 -45.722656 -2.46875 -45.046875 C -2.507812 -44.367188 -2.503906 -43.65625 -2.453125 -42.90625 C -2.398438 -42.15625 -2.390625 -41.441406 -2.421875 -40.765625 C -2.453125 -38.898438 -2.554688 -36.941406 -2.734375 -34.890625 C -2.910156 -32.847656 -2.890625 -30.707031 -2.671875 -28.46875 C -2.566406 -27.363281 -2.394531 -26.203125 -2.15625 -24.984375 C -1.925781 -23.773438 -1.609375 -22.570312 -1.203125 -21.375 C -0.585938 -19.53125 0.222656 -17.847656 1.234375 -16.328125 C 2.242188 -14.816406 3.453125 -13.726562 4.859375 -13.0625 C 5.503906 -12.75 6.632812 -12.5 8.25 -12.3125 C 9.875 -12.125 11.1875 -12.132812 12.1875 -12.34375 C 12.5 -12.375 12.773438 -12.429688 13.015625 -12.515625 C 13.265625 -12.597656 13.503906 -12.675781 13.734375 -12.75 C 16.410156 -13.65625 18.671875 -15.160156 20.515625 -17.265625 C 22.359375 -19.378906 23.78125 -21.234375 24.78125 -22.828125 C 26.164062 -25.015625 27.375 -27.328125 28.40625 -29.765625 C 29.445312 -32.203125 30.285156 -34.460938 30.921875 -36.546875 C 32.003906 -40.015625 32.828125 -43.734375 33.390625 -47.703125 C 33.953125 -51.671875 33.910156 -55.90625 33.265625 -60.40625 C 33.128906 -61.414062 32.910156 -62.46875 32.609375 -63.5625 C 32.304688 -64.65625 32.1875 -65.640625 32.25 -66.515625 C 32.3125 -67.398438 32.820312 -68.003906 33.78125 -68.328125 C 34.625 -68.609375 35.273438 -68.5625 35.734375 -68.1875 C 36.191406 -67.8125 36.53125 -67.296875 36.75 -66.640625 C 37.050781 -65.753906 37.195312 -64.726562 37.1875 -63.5625 C 37.1875 -62.394531 37.148438 -61.5 37.078125 -60.875 C 37.097656 -60.820312 37.097656 -60.773438 37.078125 -60.734375 C 37.054688 -60.691406 37.054688 -60.640625 37.078125 -60.578125 C 36.953125 -56.023438 36.523438 -51.472656 35.796875 -46.921875 C 35.066406 -42.367188 34.070312 -38.125 32.8125 -34.1875 C 32 -31.65625 30.945312 -29.09375 29.65625 -26.5 C 28.375 -23.914062 26.785156 -21.410156 24.890625 -18.984375 C 23.535156 -17.265625 21.90625 -15.488281 20 -13.65625 C 18.09375 -11.832031 15.707031 -10.441406 12.84375 -9.484375 C 12.1875 -9.265625 11.488281 -9.0625 10.75 -8.875 C 10.019531 -8.695312 9.265625 -8.578125 8.484375 -8.515625 C 7.710938 -8.453125 6.800781 -8.457031 5.75 -8.53125 C 4.695312 -8.613281 3.765625 -8.753906 2.953125 -8.953125 C 0.492188 -9.585938 -1.503906 -10.921875 -3.046875 -12.953125 C -4.597656 -14.992188 -5.820312 -17.351562 -6.71875 -20.03125 C -7.894531 -23.539062 -8.628906 -27.269531 -8.921875 -31.21875 C -9.222656 -35.164062 -9.296875 -38.492188 -9.140625 -41.203125 C -8.910156 -46.054688 -8.328125 -50.796875 -7.390625 -55.421875 C -6.453125 -60.046875 -4.925781 -64.34375 -2.8125 -68.3125 C -1.78125 -70.375 -0.769531 -72.398438 0.21875 -74.390625 C 1.207031 -76.378906 2.203125 -78.363281 3.203125 -80.34375 C 4.234375 -82.414062 5.394531 -84.382812 6.6875 -86.25 C 7.988281 -88.125 9.328125 -89.953125 10.703125 -91.734375 C 12.046875 -93.515625 13.664062 -95.222656 15.5625 -96.859375 C 17.46875 -98.492188 19.410156 -100.035156 21.390625 -101.484375 C 23.441406 -103.046875 25.695312 -104.550781 28.15625 -106 C 30.625 -107.457031 33.179688 -108.691406 35.828125 -109.703125 C 36.285156 -109.921875 36.765625 -110.113281 37.265625 -110.28125 C 37.773438 -110.457031 38.269531 -110.625 38.75 -110.78125 C 46.800781 -113.476562 54.0625 -113.988281 60.53125 -112.3125 C 67 -110.632812 72.222656 -107.210938 76.203125 -102.046875 C 77.578125 -100.328125 78.765625 -98.472656 79.765625 -96.484375 C 80.765625 -94.503906 81.625 -92.441406 82.34375 -90.296875 C 83.945312 -85.523438 84.941406 -80.632812 85.328125 -75.625 C 85.710938 -70.613281 85.867188 -66.039062 85.796875 -61.90625 C 85.773438 -61.164062 85.742188 -60.40625 85.703125 -59.625 C 85.671875 -58.851562 85.773438 -58.113281 86.015625 -57.40625 C 86.140625 -57.039062 86.257812 -56.773438 86.375 -56.609375 Z M 120.671875 -126.421875 C 120.785156 -126.066406 120.960938 -125.925781 121.203125 -126 C 121.378906 -126.0625 121.535156 -126.226562 121.671875 -126.5 C 121.816406 -126.78125 121.898438 -126.988281 121.921875 -127.125 C 121.390625 -126.945312 120.972656 -126.710938 120.671875 -126.421875 Z M 122.015625 -125.984375 C 122.441406 -126.253906 122.617188 -126.609375 122.546875 -127.046875 C 122.148438 -126.847656 121.972656 -126.492188 122.015625 -125.984375 Z M 14.515625 -90.53125 C 14.617188 -90.238281 14.785156 -90.128906 15.015625 -90.203125 C 15.203125 -90.265625 15.332031 -90.375 15.40625 -90.53125 C 15.3125 -90.832031 15.113281 -90.929688 14.8125 -90.828125 C 14.695312 -90.796875 14.597656 -90.695312 14.515625 -90.53125 Z M 119.421875 -125.40625 C 119.554688 -125.382812 119.722656 -125.320312 119.921875 -125.21875 C 120.117188 -125.125 120.28125 -125.097656 120.40625 -125.140625 C 120.40625 -125.140625 120.316406 -125.289062 120.140625 -125.59375 C 119.972656 -125.90625 119.800781 -126.035156 119.625 -125.984375 C 119.445312 -125.921875 119.378906 -125.726562 119.421875 -125.40625 Z M 10.90625 -88.21875 C 11.0625 -87.738281 11.46875 -87.609375 12.125 -87.828125 C 11.945312 -88.359375 11.625 -88.546875 11.15625 -88.390625 C 11.09375 -88.367188 11.050781 -88.335938 11.03125 -88.296875 C 11.007812 -88.265625 10.96875 -88.238281 10.90625 -88.21875 Z M 118.5 -123.09375 C 119.101562 -123.300781 119.476562 -123.269531 119.625 -123 L 119.984375 -123.109375 C 120.398438 -123.242188 120.5625 -123.457031 120.46875 -123.75 C 120.46875 -123.75 120.148438 -123.859375 119.515625 -124.078125 C 118.878906 -124.296875 118.523438 -124.429688 118.453125 -124.484375 C 118.546875 -124.179688 118.582031 -123.957031 118.5625 -123.8125 C 118.539062 -123.675781 118.519531 -123.4375 118.5 -123.09375 Z M 11.09375 -86.484375 L 11.296875 -85.875 C 11.472656 -85.9375 11.578125 -85.929688 11.609375 -85.859375 C 11.785156 -85.921875 11.882812 -86.007812 11.90625 -86.125 C 11.9375 -86.238281 11.984375 -86.304688 12.046875 -86.328125 C 11.898438 -86.742188 11.550781 -86.984375 11 -87.046875 C 10.976562 -86.910156 11.007812 -86.722656 11.09375 -86.484375 Z M 69.109375 -105.75 C 68.929688 -105.6875 68.875 -105.566406 68.9375 -105.390625 C 69 -105.203125 69.140625 -105.0625 69.359375 -104.96875 C 69.585938 -104.882812 69.726562 -104.851562 69.78125 -104.875 C 69.757812 -104.9375 69.664062 -105.070312 69.5 -105.28125 C 69.332031 -105.5 69.203125 -105.65625 69.109375 -105.75 Z M 119.28125 -121.671875 C 119.632812 -121.796875 119.769531 -121.984375 119.6875 -122.234375 C 119.65625 -122.347656 119.582031 -122.382812 119.46875 -122.34375 C 119.226562 -122.257812 119.164062 -122.035156 119.28125 -121.671875 Z M 9.3125 -84.390625 C 9.53125 -84.335938 9.734375 -84.210938 9.921875 -84.015625 C 10.117188 -83.816406 10.359375 -83.695312 10.640625 -83.65625 C 10.828125 -83.914062 10.882812 -84.164062 10.8125 -84.40625 C 10.75 -84.582031 10.640625 -84.742188 10.484375 -84.890625 C 10.328125 -85.035156 10.175781 -85.222656 10.03125 -85.453125 C 9.382812 -85.234375 9.144531 -84.878906 9.3125 -84.390625 Z M 115.90625 -120.140625 C 115.945312 -120.023438 116.050781 -119.925781 116.21875 -119.84375 C 116.332031 -119.882812 116.414062 -119.960938 116.46875 -120.078125 C 116.53125 -120.203125 116.582031 -120.300781 116.625 -120.375 C 116.539062 -120.425781 116.410156 -120.421875 116.234375 -120.359375 C 116.054688 -120.296875 115.945312 -120.222656 115.90625 -120.140625 Z M 8.484375 -82.125 C 9.265625 -82.382812 9.59375 -82.695312 9.46875 -83.0625 C 9.195312 -83.238281 8.972656 -83.296875 8.796875 -83.234375 C 8.378906 -83.097656 8.273438 -82.726562 8.484375 -82.125 Z M 71.171875 -102.25 C 71.316406 -102.175781 71.453125 -102.160156 71.578125 -102.203125 C 71.691406 -102.242188 71.832031 -102.320312 72 -102.4375 C 72.164062 -102.5625 72.269531 -102.660156 72.3125 -102.734375 C 72.15625 -103.203125 71.988281 -103.410156 71.8125 -103.359375 C 71.71875 -103.203125 71.582031 -103.039062 71.40625 -102.875 C 71.226562 -102.71875 71.148438 -102.507812 71.171875 -102.25 Z M 71.671875 -101.34375 C 71.984375 -101.1875 72.273438 -101.003906 72.546875 -100.796875 C 72.828125 -100.585938 73.125 -100.398438 73.4375 -100.234375 C 73.34375 -100.523438 73.351562 -100.691406 73.46875 -100.734375 C 73.59375 -100.773438 73.703125 -100.796875 73.796875 -100.796875 C 73.898438 -100.804688 74.007812 -100.828125 74.125 -100.859375 L 73.90625 -102.09375 C 73.726562 -102.03125 73.570312 -101.894531 73.4375 -101.6875 C 73.3125 -101.476562 73.191406 -101.351562 73.078125 -101.3125 C 73.015625 -101.289062 72.894531 -101.347656 72.71875 -101.484375 C 72.625 -101.785156 72.664062 -101.96875 72.84375 -102.03125 C 73.019531 -102.09375 73.066406 -102.238281 72.984375 -102.46875 C 72.960938 -102.53125 72.8125 -102.382812 72.53125 -102.03125 C 72.257812 -101.675781 71.972656 -101.445312 71.671875 -101.34375 Z M 5.859375 -79.28125 C 5.953125 -78.976562 6.175781 -78.882812 6.53125 -79 C 6.769531 -79.082031 6.859375 -79.210938 6.796875 -79.390625 C 6.660156 -79.410156 6.570312 -79.476562 6.53125 -79.59375 C 6.414062 -79.550781 6.300781 -79.492188 6.1875 -79.421875 C 6.082031 -79.359375 5.972656 -79.3125 5.859375 -79.28125 Z M 7.25 -78.34375 L 7.765625 -78.3125 C 8.179688 -78.457031 8.367188 -78.6875 8.328125 -79 C 8.191406 -79.21875 7.945312 -79.265625 7.59375 -79.140625 C 7.21875 -79.023438 7.101562 -78.757812 7.25 -78.34375 Z M 71.65625 -99.9375 C 71.820312 -99.789062 71.96875 -99.738281 72.09375 -99.78125 C 72.382812 -99.882812 72.597656 -100.15625 72.734375 -100.59375 C 72.609375 -100.550781 72.476562 -100.523438 72.34375 -100.515625 C 72.21875 -100.503906 72.09375 -100.476562 71.96875 -100.4375 C 71.675781 -100.34375 71.570312 -100.175781 71.65625 -99.9375 Z M 5.65625 -77.203125 C 5.8125 -77.117188 5.945312 -77.097656 6.0625 -77.140625 C 6.363281 -77.242188 6.453125 -77.476562 6.328125 -77.84375 C 6.191406 -77.851562 6.066406 -77.835938 5.953125 -77.796875 C 5.660156 -77.691406 5.5625 -77.492188 5.65625 -77.203125 Z M 5.078125 -76.21875 C 5.410156 -75.863281 5.84375 -75.671875 6.375 -75.640625 C 6.207031 -75.929688 6.070312 -76.1875 5.96875 -76.40625 C 5.863281 -76.632812 5.660156 -76.703125 5.359375 -76.609375 C 5.378906 -76.554688 5.34375 -76.5 5.25 -76.4375 C 5.164062 -76.375 5.109375 -76.300781 5.078125 -76.21875 Z M 114.125 -110 C 114.425781 -110.101562 114.546875 -110.242188 114.484375 -110.421875 C 114.453125 -110.546875 114.316406 -110.566406 114.078125 -110.484375 C 113.898438 -110.429688 113.828125 -110.34375 113.859375 -110.21875 C 113.878906 -110.15625 113.96875 -110.082031 114.125 -110 Z M 0.25 -68.734375 C 0.40625 -68.640625 0.570312 -68.625 0.75 -68.6875 C 1.226562 -68.84375 1.394531 -69.132812 1.25 -69.5625 C 1.101562 -69.78125 0.910156 -69.847656 0.671875 -69.765625 C 0.203125 -69.609375 0.0625 -69.265625 0.25 -68.734375 Z M -0.765625 -64.90625 L -0.40625 -65.03125 C -0.113281 -65.125 0.0625 -65.082031 0.125 -64.90625 C 0.113281 -64.707031 0.0195312 -64.578125 -0.15625 -64.515625 C -0.332031 -64.460938 -0.378906 -64.316406 -0.296875 -64.078125 C -0.253906 -63.960938 -0.0234375 -63.972656 0.390625 -64.109375 C 0.628906 -64.191406 0.769531 -64.269531 0.8125 -64.34375 C 0.707031 -64.445312 0.632812 -64.554688 0.59375 -64.671875 C 0.539062 -64.847656 0.519531 -65.003906 0.53125 -65.140625 C 0.550781 -65.285156 0.53125 -65.445312 0.46875 -65.625 C 0.414062 -65.800781 0.335938 -65.941406 0.234375 -66.046875 C 0.503906 -66.273438 0.847656 -66.539062 1.265625 -66.84375 C 1.691406 -67.144531 1.847656 -67.570312 1.734375 -68.125 C 1.535156 -68.125 1.285156 -68.078125 0.984375 -67.984375 C 0.328125 -67.753906 -0.128906 -67.332031 -0.390625 -66.71875 C -0.648438 -66.113281 -0.773438 -65.507812 -0.765625 -64.90625 Z M -2.265625 -63.703125 C -2.160156 -63.410156 -1.988281 -63.304688 -1.75 -63.390625 L -1.671875 -64.015625 C -1.972656 -63.910156 -2.171875 -63.804688 -2.265625 -63.703125 Z M -3.5 -60 L -3.359375 -59.5625 C -2.816406 -59.75 -2.535156 -60.007812 -2.515625 -60.34375 C -2.585938 -60.382812 -2.78125 -60.351562 -3.09375 -60.25 C -3.332031 -60.164062 -3.46875 -60.082031 -3.5 -60 Z M 68.8125 -83.453125 C 68.832031 -83.390625 68.945312 -83.257812 69.15625 -83.0625 C 69.382812 -83.144531 69.457031 -83.304688 69.375 -83.546875 C 69.21875 -83.628906 69.109375 -83.660156 69.046875 -83.640625 C 68.992188 -83.617188 68.941406 -83.582031 68.890625 -83.53125 C 68.835938 -83.476562 68.8125 -83.453125 68.8125 -83.453125 Z M -3.53125 -55.921875 C -3.488281 -55.804688 -3.390625 -55.707031 -3.234375 -55.625 C -2.929688 -55.71875 -2.835938 -55.945312 -2.953125 -56.3125 C -3.128906 -56.25 -3.320312 -56.117188 -3.53125 -55.921875 Z M 68.5 -77.875 C 68.78125 -77.84375 69.222656 -77.925781 69.828125 -78.125 C 70.421875 -78.320312 70.65625 -78.601562 70.53125 -78.96875 C 70.363281 -79.039062 70.101562 -79.019531 69.75 -78.90625 C 69.457031 -78.800781 69.175781 -78.65625 68.90625 -78.46875 C 68.632812 -78.28125 68.5 -78.082031 68.5 -77.875 Z M 107.4375 -88.15625 L 107.5625 -87.796875 C 108.03125 -87.953125 108.222656 -88.148438 108.140625 -88.390625 C 108.015625 -88.410156 107.890625 -88.398438 107.765625 -88.359375 C 107.585938 -88.304688 107.476562 -88.238281 107.4375 -88.15625 Z M 107.203125 -88.875 C 107.023438 -88.8125 106.957031 -88.722656 107 -88.609375 C 107.03125 -88.492188 107.09375 -88.4375 107.1875 -88.4375 C 107.289062 -88.4375 107.382812 -88.410156 107.46875 -88.359375 C 107.476562 -88.515625 107.492188 -88.609375 107.515625 -88.640625 C 107.546875 -88.679688 107.550781 -88.734375 107.53125 -88.796875 C 107.53125 -88.796875 107.507812 -88.804688 107.46875 -88.828125 C 107.425781 -88.847656 107.335938 -88.863281 107.203125 -88.875 Z M 68.625 -74.84375 C 68.75 -74.488281 69.003906 -74.304688 69.390625 -74.296875 C 69.492188 -74.398438 69.554688 -74.472656 69.578125 -74.515625 C 69.597656 -74.554688 69.664062 -74.597656 69.78125 -74.640625 C 69.5625 -75.085938 69.300781 -75.265625 69 -75.171875 C 68.820312 -75.109375 68.695312 -75 68.625 -74.84375 Z M 68.21875 -72.734375 C 68.507812 -72.691406 68.773438 -72.707031 69.015625 -72.78125 C 69.546875 -72.957031 69.742188 -73.253906 69.609375 -73.671875 C 69.503906 -73.972656 69.242188 -74.054688 68.828125 -73.921875 C 68.648438 -73.859375 68.476562 -73.71875 68.3125 -73.5 C 68.15625 -73.28125 68.125 -73.023438 68.21875 -72.734375 Z M 67.734375 -70.078125 C 67.804688 -70.035156 67.960938 -70.054688 68.203125 -70.140625 C 68.679688 -70.296875 68.878906 -70.59375 68.796875 -71.03125 C 68.523438 -71.0625 68.328125 -71.054688 68.203125 -71.015625 C 67.734375 -70.859375 67.578125 -70.546875 67.734375 -70.078125 Z M 69.078125 -69.625 C 69.015625 -69.601562 68.96875 -69.632812 68.9375 -69.71875 C 68.90625 -69.8125 68.832031 -69.835938 68.71875 -69.796875 C 68.300781 -69.660156 68.144531 -69.441406 68.25 -69.140625 C 68.320312 -68.910156 68.53125 -68.671875 68.875 -68.421875 C 69.226562 -68.171875 69.519531 -68.085938 69.75 -68.171875 C 70.113281 -68.285156 70.175781 -68.695312 69.9375 -69.40625 C 70.300781 -69.53125 70.519531 -69.671875 70.59375 -69.828125 C 70.675781 -69.992188 70.726562 -70.140625 70.75 -70.265625 C 70.59375 -70.359375 70.375 -70.421875 70.09375 -70.453125 C 69.8125 -70.492188 69.59375 -70.5625 69.4375 -70.65625 C 69.351562 -70.488281 69.3125 -70.300781 69.3125 -70.09375 C 69.3125 -69.894531 69.234375 -69.738281 69.078125 -69.625 Z M 66.578125 -68.78125 C 66.617188 -68.65625 66.675781 -68.570312 66.75 -68.53125 C 66.820312 -68.5 66.878906 -68.425781 66.921875 -68.3125 C 67.234375 -68.414062 67.320312 -68.671875 67.1875 -69.078125 C 66.875 -68.972656 66.671875 -68.875 66.578125 -68.78125 Z M 66.34375 -66.828125 L 66.703125 -66.640625 C 66.816406 -66.679688 66.925781 -66.734375 67.03125 -66.796875 C 67.144531 -66.867188 67.226562 -66.914062 67.28125 -66.9375 C 67.40625 -66.976562 67.503906 -66.976562 67.578125 -66.9375 C 67.660156 -66.5 67.421875 -66.234375 66.859375 -66.140625 C 66.296875 -66.054688 66.023438 -65.785156 66.046875 -65.328125 C 66.222656 -65.191406 66.429688 -65.160156 66.671875 -65.234375 L 67.296875 -65.453125 C 67.648438 -65.566406 67.914062 -65.554688 68.09375 -65.421875 C 67.914062 -64.960938 67.597656 -64.570312 67.140625 -64.25 C 66.691406 -63.925781 66.457031 -63.5 66.4375 -62.96875 C 66.625 -62.832031 66.816406 -62.757812 67.015625 -62.75 C 67.210938 -62.75 67.347656 -62.632812 67.421875 -62.40625 C 67.484375 -62.226562 67.503906 -62.066406 67.484375 -61.921875 C 67.617188 -61.910156 67.773438 -61.9375 67.953125 -62 C 68.140625 -62.0625 68.332031 -62.085938 68.53125 -62.078125 C 68.425781 -62.367188 68.304688 -62.5625 68.171875 -62.65625 C 68.046875 -62.75 67.957031 -62.882812 67.90625 -63.0625 C 67.882812 -63.125 67.90625 -63.242188 67.96875 -63.421875 C 68.03125 -63.609375 68.125 -63.722656 68.25 -63.765625 C 68.40625 -63.691406 68.523438 -63.535156 68.609375 -63.296875 C 68.742188 -62.878906 68.976562 -62.695312 69.3125 -62.75 L 69.15625 -63.1875 C 69.101562 -63.363281 69.023438 -63.550781 68.921875 -63.75 C 68.816406 -63.945312 68.679688 -64.082031 68.515625 -64.15625 C 68.816406 -64.851562 68.863281 -65.414062 68.65625 -65.84375 C 68.445312 -66.28125 68.421875 -66.859375 68.578125 -67.578125 C 68.222656 -67.460938 67.992188 -67.5 67.890625 -67.6875 C 67.796875 -67.882812 67.617188 -67.972656 67.359375 -67.953125 C 67.359375 -67.691406 67.160156 -67.523438 66.765625 -67.453125 C 66.367188 -67.390625 66.226562 -67.179688 66.34375 -66.828125 Z M 106.53125 -78.40625 C 106.675781 -78.320312 106.84375 -78.3125 107.03125 -78.375 C 107.15625 -78.414062 107.203125 -78.5 107.171875 -78.625 C 107.109375 -78.800781 106.984375 -78.859375 106.796875 -78.796875 C 106.554688 -78.710938 106.46875 -78.582031 106.53125 -78.40625 Z M 65.0625 -57.53125 C 65.164062 -57.625 65.3125 -57.703125 65.5 -57.765625 C 65.914062 -57.910156 66.3125 -57.898438 66.6875 -57.734375 C 67.070312 -57.566406 67.503906 -57.5625 67.984375 -57.71875 C 68.023438 -57.851562 68.0625 -57.960938 68.09375 -58.046875 C 68.132812 -58.128906 68.132812 -58.226562 68.09375 -58.34375 C 67.78125 -58.4375 67.472656 -58.484375 67.171875 -58.484375 C 66.878906 -58.484375 66.660156 -58.597656 66.515625 -58.828125 C 66.742188 -59.171875 66.769531 -59.59375 66.59375 -60.09375 C 66.425781 -60.59375 66.578125 -60.953125 67.046875 -61.171875 C 67.179688 -61.148438 67.375 -61.066406 67.625 -60.921875 C 67.875 -60.773438 68.085938 -60.734375 68.265625 -60.796875 C 68.441406 -60.859375 68.507812 -61.046875 68.46875 -61.359375 C 67.976562 -61.597656 67.53125 -61.648438 67.125 -61.515625 C 66.457031 -61.296875 65.957031 -60.742188 65.625 -59.859375 C 65.300781 -58.984375 65.113281 -58.207031 65.0625 -57.53125 Z M 67.28125 -59.265625 C 67.632812 -59.191406 67.929688 -59.195312 68.171875 -59.28125 C 68.585938 -59.414062 68.945312 -59.628906 69.25 -59.921875 L 69.0625 -60.46875 C 68.976562 -60.507812 68.847656 -60.5 68.671875 -60.4375 C 68.429688 -60.351562 68.1875 -60.1875 67.9375 -59.9375 C 67.695312 -59.695312 67.476562 -59.472656 67.28125 -59.265625 Z M -5.9375 -32.828125 C -5.800781 -32.816406 -5.707031 -32.785156 -5.65625 -32.734375 C -5.601562 -32.679688 -5.546875 -32.664062 -5.484375 -32.6875 C -5.453125 -32.957031 -5.453125 -33.148438 -5.484375 -33.265625 C -5.835938 -33.148438 -5.988281 -33.003906 -5.9375 -32.828125 Z M 66.5625 -56.953125 C 66.664062 -56.660156 66.867188 -56.5625 67.171875 -56.65625 C 67.460938 -56.757812 67.566406 -56.925781 67.484375 -57.15625 C 67.460938 -57.21875 67.429688 -57.257812 67.390625 -57.28125 C 67.347656 -57.300781 67.316406 -57.335938 67.296875 -57.390625 C 66.890625 -57.242188 66.644531 -57.097656 66.5625 -56.953125 Z M 66.8125 -53.84375 C 67.125 -53.882812 67.394531 -53.910156 67.625 -53.921875 C 67.851562 -53.929688 68.054688 -53.96875 68.234375 -54.03125 C 68.648438 -54.164062 68.859375 -54.53125 68.859375 -55.125 L 68.5 -55 C 68.257812 -54.925781 68.03125 -54.867188 67.8125 -54.828125 C 67.601562 -54.785156 67.410156 -54.738281 67.234375 -54.6875 C 66.816406 -54.539062 66.675781 -54.257812 66.8125 -53.84375 Z M 105.046875 -66.1875 C 105.085938 -66.257812 105.085938 -66.359375 105.046875 -66.484375 C 104.867188 -67.015625 104.632812 -67.226562 104.34375 -67.125 C 104.363281 -67.0625 104.445312 -66.90625 104.59375 -66.65625 C 104.738281 -66.414062 104.890625 -66.257812 105.046875 -66.1875 Z M 64.921875 -52.09375 C 65.078125 -52.019531 65.242188 -52.015625 65.421875 -52.078125 C 65.953125 -52.253906 66.195312 -52.609375 66.15625 -53.140625 C 65.875 -53.367188 65.519531 -53.445312 65.09375 -53.375 C 65.207031 -53.019531 65.203125 -52.769531 65.078125 -52.625 C 64.960938 -52.476562 64.910156 -52.300781 64.921875 -52.09375 Z M 105.640625 -65.265625 C 105.890625 -65.347656 105.976562 -65.507812 105.90625 -65.75 C 105.820312 -65.988281 105.6875 -66.078125 105.5 -66.015625 C 105.519531 -65.953125 105.507812 -65.878906 105.46875 -65.796875 C 105.4375 -65.710938 105.441406 -65.613281 105.484375 -65.5 C 105.515625 -65.382812 105.566406 -65.304688 105.640625 -65.265625 Z M 66.21875 -52.34375 C 66.3125 -52.050781 66.660156 -52.003906 67.265625 -52.203125 C 67.679688 -52.347656 67.847656 -52.535156 67.765625 -52.765625 C 67.648438 -52.921875 67.378906 -52.925781 66.953125 -52.78125 C 66.660156 -52.6875 66.414062 -52.539062 66.21875 -52.34375 Z M -4.8125 -28.03125 C -4.707031 -27.726562 -4.597656 -27.597656 -4.484375 -27.640625 C -4.242188 -27.722656 -4.164062 -27.882812 -4.25 -28.125 C -4.25 -28.125 -4.269531 -28.132812 -4.3125 -28.15625 C -4.351562 -28.175781 -4.519531 -28.132812 -4.8125 -28.03125 Z M -4.765625 -26.0625 C -4.929688 -26.539062 -5.304688 -26.679688 -5.890625 -26.484375 C -5.710938 -25.941406 -5.421875 -25.738281 -5.015625 -25.875 C -4.890625 -25.914062 -4.804688 -25.976562 -4.765625 -26.0625 Z M 103.21875 -62.75 C 103.320312 -62.457031 103.519531 -62.363281 103.8125 -62.46875 C 103.9375 -62.5 104.039062 -62.597656 104.125 -62.765625 C 104.019531 -63.078125 103.8125 -63.179688 103.5 -63.078125 C 103.382812 -63.035156 103.289062 -62.925781 103.21875 -62.75 Z M 84.53125 -54.125 C 85 -54.28125 85.15625 -54.59375 85 -55.0625 C 84.53125 -54.90625 84.375 -54.59375 84.53125 -54.125 Z M 103.859375 -59.109375 C 104.128906 -59.054688 104.351562 -59.0625 104.53125 -59.125 C 104.445312 -59.363281 104.34375 -59.507812 104.21875 -59.5625 C 104.101562 -59.625 104.015625 -59.742188 103.953125 -59.921875 C 104.117188 -60.242188 104.296875 -60.519531 104.484375 -60.75 C 104.679688 -60.976562 104.75 -61.28125 104.6875 -61.65625 C 104.03125 -61.4375 103.738281 -61.054688 103.8125 -60.515625 C 103.894531 -59.984375 103.910156 -59.515625 103.859375 -59.109375 Z M -5.5625 -23.09375 L -5.046875 -23.078125 C -4.398438 -23.296875 -4.132812 -23.582031 -4.25 -23.9375 C -4.382812 -23.957031 -4.628906 -23.910156 -4.984375 -23.796875 C -5.460938 -23.628906 -5.65625 -23.394531 -5.5625 -23.09375 Z M 85.734375 -53.515625 C 85.929688 -53.515625 86.0625 -53.425781 86.125 -53.25 C 86.457031 -53.425781 86.710938 -53.625 86.890625 -53.84375 C 87.078125 -54.070312 87.335938 -54.28125 87.671875 -54.46875 C 87.546875 -54.6875 87.363281 -54.753906 87.125 -54.671875 C 86.882812 -54.597656 86.632812 -54.398438 86.375 -54.078125 C 86.125 -53.765625 85.910156 -53.578125 85.734375 -53.515625 Z M 65.625 -45.484375 C 65.789062 -45.410156 65.988281 -45.414062 66.21875 -45.5 C 66.707031 -45.65625 66.878906 -45.9375 66.734375 -46.34375 C 66.671875 -46.320312 66.453125 -46.21875 66.078125 -46.03125 C 65.710938 -45.84375 65.5625 -45.660156 65.625 -45.484375 Z M 102.734375 -58.234375 C 102.859375 -57.878906 103.132812 -57.769531 103.5625 -57.90625 C 103.738281 -57.96875 103.863281 -58.078125 103.9375 -58.234375 L 103.75 -58.765625 C 103.6875 -58.804688 103.5625 -58.796875 103.375 -58.734375 C 103.257812 -58.691406 103.148438 -58.625 103.046875 -58.53125 C 102.941406 -58.4375 102.835938 -58.335938 102.734375 -58.234375 Z M 85.46875 -50.4375 C 86.257812 -51.039062 86.753906 -51.738281 86.953125 -52.53125 C 86.847656 -52.632812 86.765625 -52.722656 86.703125 -52.796875 C 86.640625 -52.878906 86.550781 -52.90625 86.4375 -52.875 C 86.375 -52.851562 86.179688 -52.484375 85.859375 -51.765625 C 85.535156 -51.054688 85.40625 -50.613281 85.46875 -50.4375 Z M 102.984375 -56.921875 C 103.085938 -56.617188 103.289062 -56.5 103.59375 -56.5625 C 103.90625 -56.632812 104.203125 -56.65625 104.484375 -56.625 C 104.503906 -56.757812 104.484375 -56.914062 104.421875 -57.09375 C 104.378906 -57.21875 104.265625 -57.378906 104.078125 -57.578125 C 103.597656 -57.421875 103.234375 -57.203125 102.984375 -56.921875 Z M 105.359375 -55.734375 C 105.484375 -55.367188 105.753906 -55.257812 106.171875 -55.40625 C 106.253906 -55.550781 106.273438 -55.6875 106.234375 -55.8125 C 106.191406 -55.9375 106.046875 -55.988281 105.796875 -55.96875 C 105.804688 -55.914062 105.660156 -55.835938 105.359375 -55.734375 Z M 103.21875 -54.40625 L 103.4375 -53.78125 C 103.71875 -53.945312 104.003906 -54.09375 104.296875 -54.21875 C 104.585938 -54.34375 104.679688 -54.554688 104.578125 -54.859375 C 104.515625 -54.835938 104.394531 -54.78125 104.21875 -54.6875 C 104.050781 -54.601562 103.878906 -54.53125 103.703125 -54.46875 C 103.460938 -54.382812 103.300781 -54.363281 103.21875 -54.40625 Z M 85.5 -47.078125 C 85.914062 -47.210938 86.113281 -47.410156 86.09375 -47.671875 C 85.925781 -47.742188 85.785156 -47.765625 85.671875 -47.734375 C 85.429688 -47.648438 85.375 -47.429688 85.5 -47.078125 Z M 62.84375 -35.6875 L 62.4375 -35.453125 C 62.5625 -35.296875 62.640625 -35.207031 62.671875 -35.1875 C 62.710938 -35.175781 62.738281 -35.140625 62.75 -35.078125 C 62.863281 -35.171875 62.925781 -35.234375 62.9375 -35.265625 C 62.957031 -35.304688 63 -35.335938 63.0625 -35.359375 C 62.957031 -35.460938 62.882812 -35.570312 62.84375 -35.6875 Z M 62.28125 -34.109375 C 62.363281 -34.078125 62.46875 -34.082031 62.59375 -34.125 C 62.882812 -34.226562 62.988281 -34.394531 62.90625 -34.625 C 62.863281 -34.75 62.769531 -34.785156 62.625 -34.734375 C 62.476562 -34.679688 62.34375 -34.632812 62.21875 -34.59375 C 62.300781 -34.351562 62.320312 -34.191406 62.28125 -34.109375 Z M 61.484375 -29.671875 C 61.390625 -29.765625 61.160156 -29.75 60.796875 -29.625 C 60.816406 -29.5625 60.816406 -29.515625 60.796875 -29.484375 C 60.773438 -29.453125 60.773438 -29.40625 60.796875 -29.34375 C 60.835938 -29.21875 60.972656 -29.191406 61.203125 -29.265625 C 61.453125 -29.347656 61.546875 -29.484375 61.484375 -29.671875 Z M 59.765625 -28.296875 L 60.46875 -28.234375 C 60.3125 -28.703125 60.113281 -28.898438 59.875 -28.828125 C 59.71875 -28.710938 59.679688 -28.535156 59.765625 -28.296875 Z M 59.65625 -26.46875 C 60.082031 -26.613281 60.226562 -26.894531 60.09375 -27.3125 C 59.8125 -27.351562 59.640625 -27.363281 59.578125 -27.34375 C 59.160156 -27.207031 59 -26.988281 59.09375 -26.6875 C 59.15625 -26.5 59.34375 -26.425781 59.65625 -26.46875 Z M 60.859375 -25.890625 L 60.65625 -26.515625 L 60.21875 -26.359375 C 60.351562 -25.941406 60.566406 -25.785156 60.859375 -25.890625 Z M 59.953125 -24.40625 C 60.035156 -24.351562 60.132812 -24.347656 60.25 -24.390625 C 60.738281 -24.554688 60.90625 -24.875 60.75 -25.34375 C 60.726562 -25.40625 60.5625 -25.300781 60.25 -25.03125 C 59.945312 -24.769531 59.847656 -24.5625 59.953125 -24.40625 Z M 108.609375 -27.078125 L 109.234375 -27.28125 L 109.0625 -27.828125 C 108.644531 -27.691406 108.492188 -27.441406 108.609375 -27.078125 Z M 107.578125 -25.734375 C 107.722656 -25.640625 107.890625 -25.625 108.078125 -25.6875 C 108.265625 -25.75 108.320312 -25.898438 108.25 -26.140625 C 108.226562 -26.203125 108.125 -26.203125 107.9375 -26.140625 C 107.632812 -26.046875 107.515625 -25.910156 107.578125 -25.734375 Z M 106.796875 -21.1875 C 106.753906 -21.300781 106.742188 -21.378906 106.765625 -21.421875 C 106.785156 -21.460938 106.785156 -21.515625 106.765625 -21.578125 C 106.734375 -21.691406 106.539062 -21.691406 106.1875 -21.578125 C 106.300781 -21.222656 106.503906 -21.09375 106.796875 -21.1875 Z M 111.234375 -18.09375 L 110.453125 -18.03125 C 110.566406 -17.675781 110.742188 -17.539062 110.984375 -17.625 C 111.234375 -17.707031 111.316406 -17.863281 111.234375 -18.09375 Z M 113.453125 -13.265625 C 113.523438 -13.023438 113.640625 -12.914062 113.796875 -12.9375 C 113.953125 -12.96875 114.0625 -12.890625 114.125 -12.703125 C 114.25 -12.742188 114.429688 -12.835938 114.671875 -12.984375 C 114.921875 -13.140625 115.023438 -13.273438 114.984375 -13.390625 C 114.742188 -13.304688 114.519531 -13.328125 114.3125 -13.453125 C 114.113281 -13.585938 113.921875 -13.625 113.734375 -13.5625 C 113.617188 -13.519531 113.523438 -13.421875 113.453125 -13.265625 Z M 114.953125 -11.984375 C 115.234375 -11.941406 115.46875 -11.851562 115.65625 -11.71875 C 115.84375 -11.582031 116.054688 -11.554688 116.296875 -11.640625 C 116.460938 -11.890625 116.492188 -12.164062 116.390625 -12.46875 C 115.828125 -12.40625 115.378906 -12.453125 115.046875 -12.609375 C 115.085938 -12.484375 115.066406 -12.390625 114.984375 -12.328125 C 114.910156 -12.273438 114.898438 -12.160156 114.953125 -11.984375 Z M 116.96875 -11.671875 C 117.039062 -11.628906 117.164062 -11.640625 117.34375 -11.703125 C 117.757812 -11.835938 117.910156 -12.082031 117.796875 -12.4375 C 117.796875 -12.4375 117.640625 -12.351562 117.328125 -12.1875 C 117.023438 -12.019531 116.90625 -11.847656 116.96875 -11.671875 Z M 116.328125 -9.65625 L 118.296875 -7.125 C 118.585938 -7.226562 118.828125 -7.242188 119.015625 -7.171875 C 119.203125 -7.109375 119.382812 -7.109375 119.5625 -7.171875 C 119.625 -7.191406 119.613281 -7.316406 119.53125 -7.546875 C 119.457031 -7.785156 119.46875 -7.957031 119.5625 -8.0625 C 120.226562 -8.28125 120.570312 -8.65625 120.59375 -9.1875 C 120.3125 -9.226562 119.988281 -9.1875 119.625 -9.0625 C 119.269531 -8.945312 118.972656 -8.953125 118.734375 -9.078125 C 118.703125 -9.335938 118.84375 -9.5 119.15625 -9.5625 C 119.46875 -9.632812 119.585938 -9.789062 119.515625 -10.03125 C 118.984375 -10.1875 118.492188 -10.1875 118.046875 -10.03125 C 117.609375 -9.882812 117.035156 -9.757812 116.328125 -9.65625 Z M 121.9375 -5.171875 C 122.09375 -5.085938 122.269531 -5.046875 122.46875 -5.046875 C 122.664062 -5.054688 122.890625 -5.070312 123.140625 -5.09375 C 123.234375 -5.25 123.238281 -5.445312 123.15625 -5.6875 C 123.070312 -5.925781 123.035156 -6.144531 123.046875 -6.34375 C 122.378906 -6.113281 122.007812 -5.722656 121.9375 -5.171875 Z M 122.859375 -6.875 C 123.171875 -6.90625 123.410156 -6.816406 123.578125 -6.609375 C 123.742188 -6.410156 123.988281 -6.328125 124.3125 -6.359375 C 124.132812 -6.890625 123.703125 -7.242188 123.015625 -7.421875 C 122.328125 -7.597656 121.789062 -7.75 121.40625 -7.875 C 120.957031 -7.664062 120.816406 -7.316406 120.984375 -6.828125 C 121.097656 -6.472656 121.351562 -6.203125 121.75 -6.015625 C 122.164062 -6.148438 122.429688 -6.285156 122.546875 -6.421875 C 122.671875 -6.554688 122.773438 -6.707031 122.859375 -6.875 Z M 119.875 -6.265625 C 119.945312 -6.222656 120.078125 -6.234375 120.265625 -6.296875 C 120.554688 -6.390625 120.644531 -6.617188 120.53125 -6.984375 L 120.171875 -6.875 C 119.867188 -6.769531 119.769531 -6.566406 119.875 -6.265625 Z M 124.046875 -5.390625 C 123.953125 -5.679688 123.695312 -5.757812 123.28125 -5.625 C 123.375 -5.332031 123.628906 -5.253906 124.046875 -5.390625 Z M 124.671875 -4.703125 C 124.992188 -4.734375 125.285156 -4.742188 125.546875 -4.734375 C 125.816406 -4.722656 126.082031 -4.726562 126.34375 -4.75 C 126.269531 -4.988281 126.144531 -5.160156 125.96875 -5.265625 C 125.789062 -5.378906 125.664062 -5.550781 125.59375 -5.78125 C 125.019531 -5.53125 124.710938 -5.171875 124.671875 -4.703125 Z M 124.671875 -4.703125 "/></g></g></g></g></g></svg>